%
M48
M72
T01C0.0120
T02C0.0320
T03C0.0394
%
T01
X8260Y8680
X9260Y7180
X14260Y7180
T02
X4260Y14180
X5260Y14180
X6260Y14180
X7260Y14180
X8260Y14180
X9260Y14180
X10260Y14180
X11260Y14180
X13260Y14180
X14260Y14180
X15260Y14180
X16260Y14180
X16260Y11180
X15260Y11180
X14260Y11180
X13260Y11180
X12260Y9680
X11260Y9680
X11260Y8180
X10260Y8180
X9260Y8180
X9260Y9680
X8260Y9680
X7260Y8180
X6260Y8180
X5260Y8180
X4260Y8180
X4260Y9680
X5260Y9680
X5260Y11180
X6260Y11180
X7260Y11180
X8260Y11180
X9260Y11180
X10260Y11180
X11260Y11180
X12260Y8180
X13260Y8180
X14260Y8180
X15260Y8180
X16260Y8180
X16260Y5180
X15260Y5180
X14260Y5180
X13260Y5180
X12260Y5180
X11260Y5180
X10260Y5180
X9260Y5180
X8260Y3680
X7260Y5180
X6260Y5180
X5260Y5180
X4260Y5180
X4260Y3680
X4260Y11180
T03
X12760Y2680
X13760Y2680
X13760Y1680
X12760Y1680
X14760Y1680
X14760Y2680
M30
